<svg id="Capa_2" data-name="Capa 2" xmlns="http://www.w3.org/2000/svg" xmlns:xlink="http://www.w3.org/1999/xlink" width="283.4" height="310.98" viewBox="0 0 283.4 310.98">
  <defs>
    <clipPath id="clip-path">
      <path d="M176.49,71.51s5.59-5.78,10.49-11.15,5.85-11.93,2.81-18.7S182.21,31.14,184,26s-.53-12.39-2.17-13.79-9.49-.71-12.69,7.24,1.18,18-2.24,28.52-8.46,18-11.11,23.54-3.88,8.71-3.88,8.71V83L161,74.38Z" fill="none" stroke="#73571e" stroke-miterlimit="10" stroke-width="1.37"/>
    </clipPath>
    <clipPath id="clip-path-2">
      <path d="M141.13,26.46s-3.78-7,0-11-1.6-7.25-4.87-9.35-7-2.78-10,2.82-11.45,27.1-13.56,33.41-2.1,10.75,1.41,14.49,9.16,10.42,9.16,10.42l17.91,6.88,3.55-6.55Z" fill="none" stroke="#73571e" stroke-miterlimit="10" stroke-width="1.37"/>
    </clipPath>
    <clipPath id="clip-path-3">
      <path d="M151.92,80.22a64.38,64.38,0,0,1,7.25-14.29c4.91-7.21,8.18-14.22,8.88-27.78s3.51-19.17-4-25.94-9.82-1.64-15,3.27a68.42,68.42,0,0,0-11,14,17,17,0,0,0-1.87,15.09c1.87,5.71,3.74,9.92,3.74,14.6s2,11.92,2,11.92S148.18,81,151.92,80.22Z" fill="none" stroke="#73571e" stroke-miterlimit="10" stroke-width="1.37"/>
    </clipPath>
    <clipPath id="clip-path-4">
      <path d="M154,301.57s-4.21-67.08-10.76-87.41-15.89-34.36-36-49.79-29.69-24.08-29.69-24.08,2.58,25,7.72,34.83,18.93,22.67,24.31,27.58,15,17.3,19.86,33.66S140,266.51,142.11,276.8s2.8,23.37,4,24.77S150.29,303.21,154,301.57Z" fill="none" stroke="#73571e" stroke-miterlimit="10" stroke-width="1.37"/>
    </clipPath>
    <clipPath id="clip-path-5">
      <path d="M142.27,75.58s-4.84.9-7.41,3.71-3.51,7.48-3.51,11.45-.23,8-4.44,8-8.18,1.87-8.41,4.67,1.4,11.92,0,15.43-4.44,8.42-8.65,10.52-12.15,4.21-12.39-5.14-1.87-20.11,0-28.52,7-19.4,17.06-24.54S127.15,66.2,131.59,66,143.36,66.49,142.27,75.58Z" fill="none" stroke="#73571e" stroke-miterlimit="10" stroke-width="1.37"/>
    </clipPath>
    <clipPath id="clip-path-6">
      <path d="M151.92,90.27a29.41,29.41,0,0,0,5.85-4c2.57-2.34,6.54,1.4,8.88,7s5.37,7.48,5.14,15.66-.47,12.86,3,16.13,8.41,8.18,11.22,10.29,8.18,1.87,8.41-10.52,1.64-26.65-2.33-34.36-7.72-15.43-13.79-18.23-11.92-3-17.3,2.1S151.92,83,151.92,83Z" fill="none" stroke="#73571e" stroke-miterlimit="10" stroke-width="1.37"/>
    </clipPath>
    <clipPath id="clip-path-7">
      <path d="M143.27,71.11a67.14,67.14,0,0,0-2.1,13.55c-.23,6.78.46,13.8,4.79,16.83,2.69-2.33,5.73-5.84,6-11.22s.47-8.64-1.63-11.92S143.27,71.11,143.27,71.11Z" fill="none" stroke="#73571e" stroke-miterlimit="10" stroke-width="1.37"/>
    </clipPath>
    <clipPath id="clip-path-8">
      <path d="M153,89.7a139.29,139.29,0,0,1-8.29,12.73c-3.51,4.44-2.74,10.28-2.3,18.23.39,7.19-.78,11.56,2.41,16.26a1.2,1.2,0,0,0,2.13-.31c1.49-4.51,2.3-15.16,7.11-17.12,5-2,3.06-25.71,2.48-31.78a.68.68,0,0,0-1.15-.41Z" fill="none" stroke="#73571e" stroke-miterlimit="10" stroke-width="1.37"/>
    </clipPath>
  </defs>
  <ellipse cx="150.89" cy="302.45" rx="29.72" ry="3.16" fill="#afa698"/>
  <g>
    <polygon points="151.92 116.68 144.68 133.98 145.32 227.42 151.92 297.37 153.96 291.58 151.92 116.68" fill="#7e6e24"/>
    <path d="M153.3,240.49c.06-14.4.39-28.81.17-43.18q-.1-7-.27-13.94a5.54,5.54,0,0,0-.36-2.22c-1.1-2.36-3.3.12-3.23,1.79a6.54,6.54,0,0,1,.14,2.19,3.67,3.67,0,0,1-1.39,1.59c-1.28,1.05-1.16,2.52-1.17,4,0,2.19.43,4.35.49,6.53.11,4,.28,8,.45,12,.14,3.32.29,6.64.4,10,.07,2.07-.44,4.25-.1,6.3s1.24,3.79,1.44,5.88c.66,6.64.33,13.33.22,20A297.41,297.41,0,0,0,151.16,282c.1,1.21.57,2.77,1.79,2.79,1.38,0,1.73-1.9,1.62-3.28C153.5,267.85,153.3,254.19,153.3,240.49Z" fill="#61531e"/>
    <path d="M151.91,140.66a2.54,2.54,0,0,0-.27-.71c-1.47-2.47-3,.57-3,2.08.18,5.06.24,10.41.34,15.58q.07,4.11.22,8.21c.07,1.77-.53,5.82,1.41,6.86a1.64,1.64,0,0,0,2.37-1.44c0-9.86,0-19.82-1-29.64A6.1,6.1,0,0,0,151.91,140.66Z" fill="#61531e"/>
    <g>
      <g clip-path="url(#clip-path)">
        <path d="M183.09,31.7A9.47,9.47,0,0,0,181.27,28a28.91,28.91,0,0,1-2.47-3.35,6,6,0,0,1-.83-3,15,15,0,0,1,.41-1.6.35.35,0,0,0-.63-.26,4.26,4.26,0,0,0-.39,1.1.29.29,0,0,0-.17.21c-.66,2.42-1.11,5.1-.09,7.48a32.8,32.8,0,0,0,2.07,3.4,13.64,13.64,0,0,1,1.37,3.67,38.06,38.06,0,0,1,.69,4.51.35.35,0,0,0,.68.09C182.82,37.58,183.72,34.6,183.09,31.7Zm-5.28-5.91a10.5,10.5,0,0,0,.7,1,5.8,5.8,0,0,0-.59-.36C177.88,26.24,177.84,26,177.81,25.79Zm2.1,3.82a.06.06,0,0,0,0,0,7.61,7.61,0,0,0-.51-.75,12,12,0,0,1-1.07-1.35A6.58,6.58,0,0,1,180,29.31.26.26,0,0,0,179.91,29.61Zm1.49-.06c-1.08-1.75-2.78-3.16-3.47-5.11a14,14,0,0,0,1.7,2.63,24.22,24.22,0,0,1,1.84,2.46Z" fill="#f0f0f9"/>
        <path d="M197.17,40.31c-1.6-5-3.48-9.69-6.72-13.87a3.35,3.35,0,0,0-3.34-.88,7.17,7.17,0,0,0-.89.35c-.06-.59-.12-1.18-.19-1.78.38-.81.77-1.63,1.14-2.46a3.77,3.77,0,0,0-2.33-5.16c-.32-1.54-.69-3.08-1.13-4.61-.88-3.05-4.56-3-6.09-1.1a3.53,3.53,0,0,0-3.38.63,71.6,71.6,0,0,0-13.89,15c-2.11,3,1.68,5.92,4.45,4.71-1.45,1.65-3,3.28-4.55,4.95-2.56,2.73.8,7.67,4.16,5.39.51-.34,1-.71,1.49-1.08,0,1.18-.06,2.36-.11,3.55-.63.8-1.27,1.6-1.93,2.38A3.69,3.69,0,0,0,165,51.92a39.64,39.64,0,0,1-4.11,12.16l-1.08.87a85.14,85.14,0,0,0-16.41,18c-2,3.05,1.85,6.13,4.7,4.69a88.46,88.46,0,0,0,12.51-7.8,3.47,3.47,0,0,0,5.8,2.1c2.18-1.94,4.58-3.68,6.94-5.46a23.83,23.83,0,0,0,6.4-2,25.19,25.19,0,0,0,10.12-9.3c.26-.42.49-.84.71-1.26A3.39,3.39,0,0,0,192.49,61c0-.63,0-1.26,0-1.88.14-.52.26-1.05.36-1.57a30.13,30.13,0,0,0,3.28-3.62C199.31,49.7,198.69,45,197.17,40.31Z" fill="#5f83c2"/>
        <path d="M175.33,49.5c-.25-.75-1-.57-1.47-.17a4.94,4.94,0,0,0-1.37,2.41.33.33,0,0,0-.15.14,36.59,36.59,0,0,1-5.52,7.91.34.34,0,0,0,.49.48c1.58-1.38,3.21-2.73,4.73-4.17A11.5,11.5,0,0,0,175,51.74,3.75,3.75,0,0,0,175.33,49.5Z" fill="#f0f0f9"/>
        <path d="M187.52,49.22c-.32-.72-1-1.9-1.94-1.73a1,1,0,0,0-.79.89,2,2,0,0,0-.25.66.37.37,0,0,0-.08.18,25.76,25.76,0,0,1-1.82,6.9,24.45,24.45,0,0,1-1.59,3.15c-.3.51-.63,1-1,1.5a2.58,2.58,0,0,0-.55,1.5.34.34,0,0,0,.51.3c3.66-2.42,7.76-5.45,8-10.24A6.92,6.92,0,0,0,187.52,49.22Z" fill="#9eb3dd"/>
        <path d="M180.39,43.07a.38.38,0,0,0-.39.16,9.84,9.84,0,0,0-1.15,3.53,36.85,36.85,0,0,1-1.09,3.72,24.39,24.39,0,0,1-3.56,6.82,47.4,47.4,0,0,1-5.82,6c-2.06,1.89-4.24,3.65-6.27,5.57s-3.86,4.22-4.24,7.05a.37.37,0,0,0,.55.37.9.9,0,0,0,.26.37.41.41,0,0,0,.11.07.35.35,0,0,0,.4.18,1.58,1.58,0,0,0,1.07-.14c.65-.37,1-1.11,1.47-1.66A17.07,17.07,0,0,1,165.58,72a36.35,36.35,0,0,0,3.83-2.94,40.64,40.64,0,0,0,6.35-7.26,43.6,43.6,0,0,0,4.87-8.88,17.34,17.34,0,0,0,1.29-5.76C182,45.91,182,43.42,180.39,43.07ZM161.57,74.21a8.62,8.62,0,0,0-.73.87,3.84,3.84,0,0,1-.82,1,.93.93,0,0,1-.35.15c.19-.34.37-.69.53-1a.35.35,0,0,0,.38-.15c.37-.61.73-1.22,1.07-1.84a.35.35,0,0,0,.51,0h0a.31.31,0,0,0,.22.09,1.37,1.37,0,0,0,.29-.07A10.35,10.35,0,0,0,161.57,74.21Zm1.91-1.62a1.34,1.34,0,0,0,.11-.14.3.3,0,0,0,.23-.11c.38-.43.73-.88,1.08-1.33a.29.29,0,0,0,.31-.09c.09-.1.16-.21.25-.31l.06,0a.37.37,0,0,0,.63.06l.35-.5a.34.34,0,0,0,.18.24C165.63,71.15,164.53,71.83,163.48,72.59Z" fill="#9eb3dd"/>
        <path d="M183.7,15.68A6,6,0,0,0,180.89,12a3,3,0,0,0-3.74.63,2.09,2.09,0,0,0-.36,1.71,1.78,1.78,0,0,0,1.43,1.14h0l.09.09c1.33.88,1.68,2.61,1.67,4.1,0,1.79-.48,3.74.15,5.47a2.75,2.75,0,0,0,1.19,1.51c.81.44,1.29-.18,1.73-.8a8.89,8.89,0,0,0,1.55-4.68A14.16,14.16,0,0,0,183.7,15.68Z" fill="#3c5da8"/>
        <path d="M191.14,46.52a14.13,14.13,0,0,0-1.41-4.38.88.88,0,0,0,0-.16.26.26,0,0,0-.19-.22c-.11-.21-.22-.42-.34-.62s-.31-.47-.48-.71a2.1,2.1,0,0,0-.55-1,13.05,13.05,0,0,0-1-1,24.45,24.45,0,0,0-2.27-1.79.31.31,0,0,0-.32,0,.36.36,0,0,0-.58.26,8.13,8.13,0,0,0,1.17,4.43,8.76,8.76,0,0,0,1.11,1.4,11.69,11.69,0,0,1,1.91,9.8,13.28,13.28,0,0,1-2.49,4.71c-.57.75-1.16,1.48-1.7,2.25a7.86,7.86,0,0,0-1.3,2.35c-.2.81.59,1.11,1.21.8a5.1,5.1,0,0,0,1-.75c.34-.3.68-.61,1-.93a19.71,19.71,0,0,0,3.29-4.3A15.93,15.93,0,0,0,191.14,46.52Z" fill="#3c5da8"/>
        <path d="M174.6,64.86a1.4,1.4,0,0,0-.66-.11.29.29,0,0,0-.37,0l-.12.1a4.78,4.78,0,0,0-1.7,1.15c-.37.35-.72.71-1.07,1.08-1.25,1.06-2.47,2.14-3.71,3.22-.26.23,0,.66.34.57a4.65,4.65,0,0,0,.8-.33.28.28,0,0,0,.45.13,3.88,3.88,0,0,1,.57-.36.35.35,0,0,0,.45,0l.09-.08,1.94-.23a.3.3,0,0,0,.35,0l.26,0a2.39,2.39,0,0,0,1.47-.67,7.26,7.26,0,0,0,1-1.42C175.19,67,175.83,65.41,174.6,64.86Z" fill="#3c5da8"/>
        <path d="M177.4,29.93a2.34,2.34,0,0,0-1-.84,1.55,1.55,0,0,0-1.4.37,3.83,3.83,0,0,0-1.36,2.33,17,17,0,0,0-.1,3.49,15.39,15.39,0,0,1-.44,3.58A22.41,22.41,0,0,1,170.24,45a23.52,23.52,0,0,0-1.53,2.84,7.33,7.33,0,0,0-.76,3c.05,1.09,1.16,1.26,2,.93a6.17,6.17,0,0,0,2.51-2,7.16,7.16,0,0,0,.88-1.42c.25-.51.52-1.19,1.13-1.35.78-.2,1,.83,1.05,1.39a4.78,4.78,0,0,1,0,1.51l-.2.6a1.14,1.14,0,0,0-.07.68.83.83,0,0,0,1,.4,1.7,1.7,0,0,0,1.07-.89,5,5,0,0,0,.36-1.53c.09-.64.17-1.29.25-1.94.15-1.28.28-2.58.38-3.87q.32-3.89.32-7.78C178.6,33.67,178.63,31.5,177.4,29.93Z" fill="#3c5da8"/>
      </g>
      <path d="M176.49,71.51s5.59-5.78,10.49-11.15,5.85-11.93,2.81-18.7S182.21,31.14,184,26s-.53-12.39-2.17-13.79-9.49-.71-12.69,7.24,1.18,18-2.24,28.52-8.46,18-11.11,23.54-3.88,8.71-3.88,8.71V83L161,74.38Z" fill="none" stroke="#73571e" stroke-miterlimit="10" stroke-width="1.37"/>
    </g>
    <g>
      <g clip-path="url(#clip-path-2)">
        <path d="M146.1,42.11q2.21-12.43,4.36-24.86c.85-4.84.77-9.38-1.8-13.76-2.16-3.7-6.41-7.23-10.67-8.2-8.68-2-20.23,2.63-22,12.47-1.83,10.48-3,21.36-5.85,31.62-4.43,16.11.57,35.42,17.79,41.17,8.86,3,19.9-3.41,22-12.46A18.14,18.14,0,0,0,144.29,50c.25-.77.47-1.57.67-2.36C145.44,45.8,145.77,44,146.1,42.11Z" fill="#5f83c2"/>
        <path d="M120.38,51.13c-.22-.84-.46-1.68-.71-2.51a.34.34,0,0,0-.31-.24,17.25,17.25,0,0,0-.23-3c-.09-.44-.76-.25-.66.18a22.28,22.28,0,0,1,.22,3.16,6,6,0,0,0,.25,1.45,4.58,4.58,0,0,0,.76,1.32.37.37,0,0,0,.65-.15A.33.33,0,0,0,120.38,51.13Z" fill="#f6f7e0"/>
        <path d="M121.69,51.71a15.4,15.4,0,0,1-1.28-7.39c.19-2.57,1.61-5.28,1.44-7.87a27.88,27.88,0,0,0-.28-4.08.69.69,0,0,0-1.28-.34,19,19,0,0,0-1.73,3.46,1.59,1.59,0,0,0-.13.13,14.08,14.08,0,0,0-1.07,16.51c.67,1,1.59,2.47,2.81,2.89a1.54,1.54,0,0,0,2.1-1.63A4.87,4.87,0,0,0,121.69,51.71Zm-2.79-5.87h.1a16.85,16.85,0,0,0,.57,4,12,12,0,0,0,.64,1.71A13.37,13.37,0,0,1,118.9,45.84Z" fill="#f6f7e0"/>
        <path d="M134.27,12.42a.69.69,0,0,0-.66-.86,3.48,3.48,0,0,0-2.26.55,1.08,1.08,0,0,0-.51.33.57.57,0,0,0-.46.34c-1.82,3.78-4.7,7-6.35,10.83q-.21.51-.39,1a22.45,22.45,0,0,0-1,2.05,4.2,4.2,0,0,0,.08,3.9.69.69,0,0,0,.94.25,3.83,3.83,0,0,0,.92-1,4.93,4.93,0,0,0,1.19-1.8L132,16.54A10.66,10.66,0,0,0,134.27,12.42Z" fill="#f6f7e0"/>
        <path d="M133.33,62.36c-.76-2.18-2.38-3.84-3.46-5.84A21.53,21.53,0,0,1,127.7,50a41,41,0,0,0-1.07-5.81.68.68,0,0,0-1.07-.36.6.6,0,0,0-.4.46c-.36,1.68-.74,3.37-1.07,5.06l0,0a6.17,6.17,0,0,0,.12,4.53A24,24,0,0,0,126,58.34c1.19,2.17,3.85,6,6.83,4.86A.69.69,0,0,0,133.33,62.36Z" fill="#91bce5"/>
        <path d="M125.66,32.05a7.17,7.17,0,0,0-2,2.47,19.77,19.77,0,0,0-1.89,4c-.44,1.25-.73,2.84.18,4a.68.68,0,0,0,.83.11l.14-.13a2,2,0,0,0,1.28-.74,4,4,0,0,0,.81-2.53,12.56,12.56,0,0,1,.32-2.87,22.31,22.31,0,0,1,1.09-2.85l0-.15a3.51,3.51,0,0,1,.27-.4c.37-.49-.18-1.08-.71-1A1.22,1.22,0,0,0,125.66,32.05Z" fill="#91bce5"/>
        <path d="M136.34,13.55a1,1,0,0,0-.76.13.66.66,0,0,0-.33.19c-1.18,1.27-2.34,2.58-3.45,3.91-.54.65-1.08,1.3-1.59,2a2.28,2.28,0,0,0-.57,2.21.73.73,0,0,0,.66.51,2.27,2.27,0,0,0,1.56-.92c.46-.52.91-1.06,1.36-1.59L136,16.68a4.84,4.84,0,0,0,1.14-1.6A1.22,1.22,0,0,0,136.34,13.55Z" fill="#91bce5"/>
        <path d="M135.61,24.78a.67.67,0,0,0-1,.44.56.56,0,0,0-.25.54A13,13,0,0,1,133,32.19c-.88,1.84-2.31,3.54-2.33,5.68a.68.68,0,0,0,.34.59c1.36.77,2.64-.8,3.39-1.77a14.67,14.67,0,0,0,2.08-3.88C137.48,30.19,138.27,26.71,135.61,24.78Z" fill="#91bce5"/>
        <path d="M133.81,26.05a1.07,1.07,0,0,0-.16-.25c-.29-.34-.33-.88-.81-1a.64.64,0,0,0-.86.62,7.2,7.2,0,0,1-1.29,3.82c-.72,1.31-1.44,2.63-2,4a1.08,1.08,0,0,0,.64,1.58c.72.19,1.25-.35,1.72-.8a12.94,12.94,0,0,0,2.67-3A5.85,5.85,0,0,0,133.81,26.05Z" fill="#96b0dd"/>
        <path d="M124.84,41.2a.69.69,0,0,0-1,0,2.67,2.67,0,0,0-.4.63.74.74,0,0,0-.64.5c-.62,1.48-1.26,3-1.84,4.46A4.67,4.67,0,0,0,121,51a1.34,1.34,0,0,0,1.65.73c.67-.28.93-1,1.21-1.63a25.53,25.53,0,0,0,1.81-4.36A5,5,0,0,0,124.84,41.2Z" fill="#96b0dd"/>
        <path d="M139.15,63.09A30.78,30.78,0,0,0,136.86,52c-1.37-3.4-3.29-6.66-6.47-8.64a.68.68,0,0,0-.48-.16.65.65,0,0,0-.31.18c-1,.89-1,2-1.07,3.25a12.91,12.91,0,0,0,.35,3.09,53.68,53.68,0,0,0,1.81,5.82,17.29,17.29,0,0,1,1.11,6c0,.92-.24,1.81-.28,2.72a1.39,1.39,0,0,0,1.11,1.42c.78.27,1.59.49,2.38.73l.14,0,.13,0a11,11,0,0,0,1.62.48c0,.09,0,.17,0,.26.16.76,1.35.58,1.35-.19,0-.1,0-.2,0-.29C139.33,66,139.16,64.18,139.15,63.09Z" fill="#355faa"/>
        <path d="M139,7c-2.17-1.18-5.17-1.14-6.57,1.19a.66.66,0,0,0-.06.53.75.75,0,0,0,.35,1.1A7.58,7.58,0,0,1,137,15.08,9.29,9.29,0,0,1,137.3,17a13,13,0,0,0,.07,1.65,1.19,1.19,0,0,0,2.06.7,9.44,9.44,0,0,0,1.8-3.1,13,13,0,0,0,1.05-3.54A5.68,5.68,0,0,0,139,7Z" fill="#355faa"/>
        <path d="M126.44,13.64c.49-2.11.91-4.24,1.27-6.41a.68.68,0,0,0-1.32-.36c-.55,1.48-1.07,3-1.58,4.47a.73.73,0,0,0-.17.27c-.48,1.32-1,2.65-1.47,4a66.13,66.13,0,0,0-4.81,6.56,102.52,102.52,0,0,0-5.73,9.76,51.44,51.44,0,0,0-4,10.36,22.7,22.7,0,0,0-.48,11,19.93,19.93,0,0,0,4.62,8.36c2.11,2.34,5.06,5,8.26,5.6,1.25.22,3.18.14,3.92-1.09A4,4,0,0,0,125.3,64a13.24,13.24,0,0,0-.45-2.93,29.8,29.8,0,0,0-2-5.13c-.87-1.82-1.74-3.65-2.7-5.43-.5-.93-1-1.85-1.61-2.75a17.9,17.9,0,0,1-1.56-2.6c-.91-2.14,0-4.41.92-6.41A141.85,141.85,0,0,0,126.44,13.64ZM113.15,34a89.44,89.44,0,0,1,5.72-10.08c.83-1.3,1.7-2.57,2.59-3.81-1,2.63-2.07,5.26-3.15,7.87a.73.73,0,0,0-1.16.3c-1.56,4-3.13,8.29-3.46,12.61l0-.17a.69.69,0,0,0-1.34.13.74.74,0,0,0-.83.26c0-.09,0-.18,0-.28a.59.59,0,0,0-.81-.45A49.16,49.16,0,0,1,113.15,34Zm4.4,28.1a.66.66,0,0,0,1,0,.75.75,0,0,0,.44.08A7.57,7.57,0,0,0,121.66,66l-.24,0a7.6,7.6,0,0,1-2.56-1A20.59,20.59,0,0,1,115.07,62a19.59,19.59,0,0,1-5.14-8c-.83-2.52-1.76-7.34-.24-9.68.18.91.32,1.84.48,2.76a.69.69,0,0,0-.23.69c0,.1,0,.19.07.29a.71.71,0,0,0-.69.88,39.47,39.47,0,0,0,2.8,6.92.59.59,0,0,0,.59.33c.19.41.38.81.58,1.21a.72.72,0,0,0,1.22,0c.17.33.34.66.52,1a.62.62,0,0,0,.69.31A7.52,7.52,0,0,0,117.55,62.06Z" fill="#355faa"/>
      </g>
      <path d="M141.13,26.46s-3.78-7,0-11-1.6-7.25-4.87-9.35-7-2.78-10,2.82-11.45,27.1-13.56,33.41-2.1,10.75,1.41,14.49,9.16,10.42,9.16,10.42l17.91,6.88,3.55-6.55Z" fill="none" stroke="#73571e" stroke-miterlimit="10" stroke-width="1.37"/>
    </g>
    <g>
      <g clip-path="url(#clip-path-3)">
        <path d="M177.87,20.11c3.15-6.66,2.24-15.35-3.35-20.48-7.17-6.58-18.14-7-25.25,0-4.7,4.63-8.11,10.26-11.42,15.9-.55.94-1.1,1.88-1.67,2.8s-2.13,2.46-2.43,3.56l-1.3,1.69-.64.85a29.56,29.56,0,0,0-3.41,7c-4.36,12.25-2.68,25-1.32,37.56.67,6.17,1.71,11.64,6.26,16.28a20.43,20.43,0,0,0,19.81,5.21c8.15-2.24,14.36-9.62,17.89-17,5.59-11.66,7.63-24.55,10.44-37.06A19.83,19.83,0,0,0,177.87,20.11Z" fill="#5f83c2"/>
        <path d="M173.33,37.74c-.42-3.19-.46-6.41-.74-9.53a2.58,2.58,0,0,0,.37-1.43c-.1-4-.32-8.2-2.59-11.64a15.39,15.39,0,0,0-3.9-3.86,2.42,2.42,0,0,0-1.31-1.63,17.9,17.9,0,0,0-1.72-.8,2.55,2.55,0,0,0-2.33-1,2.39,2.39,0,0,0-3.42.71l-.15.05a6.6,6.6,0,0,0-2,1.36c-4.52,1.1-9.4,1-13.38,4a3,3,0,0,0,.45,5.06,2.58,2.58,0,0,0-1,3.23q-1.45,1.84-2.84,3.72c-3,4-5.3,8.38-5.06,13.49.28,5.91,2.45,11.86,3.83,17.58q2.4,10,4.68,19.95a2.37,2.37,0,0,0,1.82,1.9,2.92,2.92,0,0,0,4.77-2c.72-10.78-3.74-20.69-5.84-31-1-5.11-1.89-12,1.16-16.56a52.17,52.17,0,0,1,6.26-7.42A27.26,27.26,0,0,0,153,20.24c3.2-2.12,6.45-4.79,10-1.72,5.65,4.86,3.92,12.68,4.78,19.22C168.3,41.19,173.79,41.24,173.33,37.74Z" fill="#355faa"/>
        <path d="M149.17,23.25a4,4,0,0,0-.75.43,7.31,7.31,0,0,0-1.56,1.48c-3.47,4.28-6,10.4-4.67,15.94a.35.35,0,0,0,.57.15,9.86,9.86,0,0,0,2.2-3c2.69-4.58,3.75-9.65,4.74-14.79C149.78,23.1,149.49,23.12,149.17,23.25Z" fill="#d8daef"/>
        <path d="M162.5,51.51c-.74-.17-1.27.37-1.67.92-.61.82-1.19,1.65-1.78,2.48a22.16,22.16,0,0,0-3.29,6.92,34.46,34.46,0,0,1-4.16,9.6c-.4.6-.82,1.19-1.26,1.76s-1,1-1.08,1.57.53,1.46.84,2l.79,1.4a.25.25,0,0,0,0,.09l.58,1a.35.35,0,0,0,.64-.18c.17-3.89,2.25-7.28,4.19-10.54a46.72,46.72,0,0,0,2.7-5.09,49.88,49.88,0,0,0,2-5.28c.65-2.08,1.2-4.18,1.75-6.28A.34.34,0,0,0,162.5,51.51Z" fill="#d8daef"/>
        <path d="M167.1,18.63a24.65,24.65,0,0,0-2.72-3.86,12.52,12.52,0,0,0-2.2-2.34,4.45,4.45,0,0,0-4.44-.63,10.11,10.11,0,0,0-3.45,2.75c-.29.32.19.81.5.47a.35.35,0,0,0,.18,0,5.65,5.65,0,0,1,6.27,3.19,12.7,12.7,0,0,1,1.12,6.31c-.07,2.16-.38,4.31-.32,6.47,0,.54.3,1.27.82,1.11a.87.87,0,0,0,.35-.25,17.93,17.93,0,0,0,2.68-3.79,16,16,0,0,0,2-4.73A7.08,7.08,0,0,0,167.1,18.63Z" fill="#faeef6"/>
        <path d="M159.66,17.26a11.89,11.89,0,0,0-3.26,3.62.28.28,0,0,0-.18.16c-3.7,6.62-5.56,14.06-6.52,21.54-1,8.1-1.17,16.32-1.44,24.48-.08,2.08-.14,4.16-.21,6.24,0,.64-.25,1.71.26,2.24a.77.77,0,0,0,.62.24.34.34,0,0,0,.59-.1s0-.06,0-.08a3.52,3.52,0,0,0,.6-.42,6.06,6.06,0,0,0,1.67-4.55c.06-2,.06-4.09.21-6.14s.34-4.06.45-6.09.08-4,0-6.07a43.78,43.78,0,0,1,0-5.84,39.13,39.13,0,0,1,.91-5.39c1.66-7.06,4.77-13.7,6.27-20.81.19-.88.35-1.76.48-2.65C160.2,17.39,159.93,17.06,159.66,17.26Z" fill="#527dbf"/>
        <path d="M164.49,41.31a7.72,7.72,0,0,0-1.55-3.56c-.15-.18-.61-.46-.86-.33s-.21.86-.21,1.14a13.18,13.18,0,0,1-.54,3.4c-1.1,4.39-2.19,8.79-3.56,13.11-.24.76-.56,1.51-.75,2.28a.34.34,0,0,0,.42.42,3,3,0,0,0,1.5-1.18c.46-.63.9-1.29,1.33-1.94a37.06,37.06,0,0,0,2.53-4.24,16.47,16.47,0,0,0,1.86-7.14A10.81,10.81,0,0,0,164.49,41.31Z" fill="#7198d0"/>
        <path d="M146.55,46.15a24.28,24.28,0,0,1,.36-2.5,1.08,1.08,0,0,0,0-.4c-.22-1-1.29.78-1.4,1.06-2.61,7.21-2,15.48.35,22.69a.34.34,0,0,0,.67-.1q.34-5.36.22-10.73c0-1.83-.13-3.67-.25-5.5A27.24,27.24,0,0,1,146.55,46.15Z" fill="#7090ca"/>
      </g>
      <path d="M151.92,80.22a64.38,64.38,0,0,1,7.25-14.29c4.91-7.21,8.18-14.22,8.88-27.78s3.51-19.17-4-25.94-9.82-1.64-15,3.27a68.42,68.42,0,0,0-11,14,17,17,0,0,0-1.87,15.09c1.87,5.71,3.74,9.92,3.74,14.6s2,11.92,2,11.92S148.18,81,151.92,80.22Z" fill="none" stroke="#73571e" stroke-miterlimit="10" stroke-width="1.37"/>
    </g>
    <g>
      <g clip-path="url(#clip-path-4)">
        <path d="M174.24,293q-5-20.82-10.36-41.57c-3.33-12.93-6.81-25.84-11.89-38.22a169.27,169.27,0,0,0-11-22.78c-3.57-6-7.55-11.7-11.5-17.44L105.1,137.53c-3.64-5.29-8.21-9.45-14.56-11.2-5.84-1.61-13.61-.88-18.79,2.46C61.33,135.51,55.28,150.9,63,162.14l23.64,34.35c7.09,10.29,14,20.55,19.21,31.9,4.53,11.5,7.77,23.43,10.85,35.39q5.43,21,10.52,42.18c3,12.4,17.74,21,30,17C170.11,318.81,177.45,306.29,174.24,293Z" fill="#a2c858"/>
        <path d="M96.32,170.41c-2.59-3.89-6-7.11-8.62-11a1.37,1.37,0,0,0-2.37,1.39c2.59,3.88,6,7.1,8.62,11a1.37,1.37,0,1,0,2.37-1.38Z" fill="#4781c3"/>
        <path d="M110.64,180q-4.71-4.32-9.18-8.88A1.37,1.37,0,0,0,99.52,173q4.47,4.56,9.18,8.88a1.4,1.4,0,0,0,1.94,0A1.38,1.38,0,0,0,110.64,180Z" fill="#4781c3"/>
        <path d="M107.26,190.1a59.68,59.68,0,0,0-6.73-9,1.38,1.38,0,0,0-1.94,0,1.4,1.4,0,0,0,0,1.94,55.65,55.65,0,0,1,6.3,8.46,1.37,1.37,0,0,0,2.37-1.39Z" fill="#4781c3"/>
        <path d="M135.42,200.37c-1.23-4.22-5-6.7-8.88-8.34a1.42,1.42,0,0,0-1.88.49,1.39,1.39,0,0,0,.49,1.88c.89.38,1.77.79,2.61,1.25.42.23.83.48,1.24.75l.59.41.1.07.08.06.26.22a11.84,11.84,0,0,1,1,.91c.15.16.29.32.43.49l.11.14.16.21a9.75,9.75,0,0,1,.67,1.12c0,.1.1.2.14.3l0,0v0c.08.22.16.45.23.68a1.37,1.37,0,1,0,2.65-.73Z" fill="#4781c3"/>
        <path d="M140,234.61a30.8,30.8,0,0,0-2.62-5,29.68,29.68,0,0,1-2.52-4.65,1.41,1.41,0,0,0-1.69-1,1.39,1.39,0,0,0-1,1.69,31.6,31.6,0,0,0,2.62,5,30.14,30.14,0,0,1,2.52,4.65,1.42,1.42,0,0,0,1.69,1A1.37,1.37,0,0,0,140,234.61Z" fill="#4781c3"/>
        <path d="M145.64,256.45a41.45,41.45,0,0,0-3.34-11,1.39,1.39,0,0,0-1.88-.5,1.41,1.41,0,0,0-.49,1.88A39.32,39.32,0,0,1,143,257.18a1.37,1.37,0,1,0,2.65-.73Z" fill="#4781c3"/>
        <path d="M150.55,282.13a48.75,48.75,0,0,1-1.19-5.46c-.13-.83-.23-1.67-.31-2.5a12.39,12.39,0,0,0-.42-2.91,1.42,1.42,0,0,0-1.69-1,1.39,1.39,0,0,0-1,1.69,10.78,10.78,0,0,1,.36,2.59c.1.94.22,1.89.37,2.82a46.66,46.66,0,0,0,1.2,5.46A1.37,1.37,0,0,0,150.55,282.13Z" fill="#4781c3"/>
        <path d="M100.39,168.24a24.35,24.35,0,0,0-5-6.7,1.38,1.38,0,1,0-2,1.94c.48.46,1,.93,1.39,1.42.22.25.43.5.64.76s.21.25.31.38l.16.21A23.31,23.31,0,0,1,98,169.62a1.38,1.38,0,0,0,1.88.5A1.4,1.4,0,0,0,100.39,168.24Z" fill="#cbd964"/>
        <path d="M123.31,188.69a13.93,13.93,0,0,1-1.33-2.5,9.48,9.48,0,0,0-1.77-2.58c-1.54-1.61-3.24-3.09-4.87-4.62a1.37,1.37,0,0,0-1.94,1.94c1.59,1.5,3.22,2.95,4.75,4.51a7.12,7.12,0,0,1,1.46,2.14,13.8,13.8,0,0,0,1.32,2.49,1.42,1.42,0,0,0,1.88.5A1.39,1.39,0,0,0,123.31,188.69Z" fill="#cbd964"/>
        <path d="M123.39,198.53a110.93,110.93,0,0,0-8.35-9.9,1.4,1.4,0,0,0-1.94,0,1.38,1.38,0,0,0,0,1.94,108.25,108.25,0,0,1,7.92,9.34,1.42,1.42,0,0,0,1.88.49A1.37,1.37,0,0,0,123.39,198.53Z" fill="#cbd964"/>
        <path d="M134,218.14a17.13,17.13,0,0,1-1.32-4.25l-1.23-4.78a1.37,1.37,0,0,0-2.65.73c.43,1.65.85,3.3,1.28,4.95a18.08,18.08,0,0,0,1.54,4.73A1.38,1.38,0,0,0,134,218.14Z" fill="#cbd964"/>
        <path d="M142.52,226.23a1.39,1.39,0,0,0-1.88-.49,1.41,1.41,0,0,0-.49,1.88,21.81,21.81,0,0,1,1.72,10.61,1.38,1.38,0,0,0,1.37,1.37,1.4,1.4,0,0,0,1.38-1.37A24.75,24.75,0,0,0,142.52,226.23Z" fill="#cbd964"/>
        <path d="M148.41,261.21a1.41,1.41,0,0,0-1.88-.5c-1.2.66-1.7,2-2.22,3.16a19.21,19.21,0,0,0-1.38,4,1.39,1.39,0,0,0,1,1.69,1.37,1.37,0,0,0,1.68-1,13.29,13.29,0,0,1,.5-1.82c.09-.26.19-.51.29-.77l.15-.35c0-.05.11-.27.13-.3.22-.51.44-1,.69-1.52l.18-.33c0-.06.07-.11.1-.16s.07-.11-.05.05c0-.09.15-.18.22-.24l.14-.08A1.38,1.38,0,0,0,148.41,261.21Z" fill="#cbd964"/>
        <path d="M149.66,287.43a1.41,1.41,0,0,0-1.37-1.37,1.39,1.39,0,0,0-1.38,1.37c.27,3.56.62,7.1,1.05,10.64a1.41,1.41,0,0,0,1.37,1.37,1.38,1.38,0,0,0,1.38-1.37C150.28,294.53,149.93,291,149.66,287.43Z" fill="#cbd964"/>
        <path d="M89.2,157.09c-.91-1-1.86-1.88-2.83-2.78a1.48,1.48,0,0,0-1-.4A1.37,1.37,0,0,0,84,155.28a1.42,1.42,0,0,0,.4,1c1,.89,1.93,1.81,2.84,2.77a1.4,1.4,0,0,0,1,.4,1.41,1.41,0,0,0,1-.4,1.35,1.35,0,0,0,.4-1A1.46,1.46,0,0,0,89.2,157.09Z" fill="#8dc04e"/>
        <path d="M94.53,175.85a18.9,18.9,0,0,1-1.39-2.58,1.36,1.36,0,0,0-.82-.63,1.44,1.44,0,0,0-1.06.13,1.4,1.4,0,0,0-.63.82l0,.37a1.28,1.28,0,0,0,.19.69,17.79,17.79,0,0,0,1.39,2.58,1.43,1.43,0,0,0,.82.63,1.4,1.4,0,0,0,1.06-.14,1.36,1.36,0,0,0,.49-1.87Z" fill="#8dc04e"/>
        <path d="M115.55,201.69q-2-2.56-3.68-5.3a1.38,1.38,0,0,0-2.38,1.39q1.74,2.73,3.69,5.3a1.51,1.51,0,0,0,.82.63,1.4,1.4,0,0,0,1.06-.14A1.39,1.39,0,0,0,115.55,201.69Z" fill="#8dc04e"/>
        <path d="M127.79,189.12a11.8,11.8,0,0,0-.9-1.86,13.09,13.09,0,0,0-1.23-1.65,1.39,1.39,0,0,0-2,0,1.41,1.41,0,0,0-.4,1,1.51,1.51,0,0,0,.4,1l.27.32a10.74,10.74,0,0,1,1.19,2,1.2,1.2,0,0,0,.22.4,1,1,0,0,0,.39.35,1.36,1.36,0,0,0,1.87-.49A1.28,1.28,0,0,0,127.79,189.12Z" fill="#8dc04e"/>
        <path d="M126.34,213.12a55.65,55.65,0,0,0-2.76-5.17,1.37,1.37,0,0,0-2.37,1.38A57,57,0,0,1,124,214.5a1.38,1.38,0,0,0,1.88.49A1.4,1.4,0,0,0,126.34,213.12Z" fill="#8dc04e"/>
        <path d="M138,210a1.38,1.38,0,0,0-1.88-.49,1.4,1.4,0,0,0-.5,1.88,7.43,7.43,0,0,1,.35.69c.06.12.12.25.17.38s0,.07.05.1c.18.48.34,1,.48,1.48s.23,1,.31,1.51v.08c0,.15,0,.29,0,.44s0,.52,0,.77a1.38,1.38,0,1,0,2.75,0A15.44,15.44,0,0,0,138,210Z" fill="#8dc04e"/>
        <path d="M137.67,245.7,136.32,239a1.37,1.37,0,0,0-2.65.73l1.35,6.67a1.38,1.38,0,0,0,1.69,1A1.4,1.4,0,0,0,137.67,245.7Z" fill="#8dc04e"/>
        <path d="M143.41,262.41l-.06-.38a13.21,13.21,0,0,1-.1-2.18,1.38,1.38,0,0,0-.41-1,1.34,1.34,0,0,0-1-.4,1.4,1.4,0,0,0-1.37,1.37,15.72,15.72,0,0,0,.26,3.29,1.4,1.4,0,0,0,.63.82,1.36,1.36,0,0,0,1.06.14,1.4,1.4,0,0,0,.82-.63A1.55,1.55,0,0,0,143.41,262.41Z" fill="#8dc04e"/>
      </g>
      <path d="M154,301.57s-4.21-67.08-10.76-87.41-15.89-34.36-36-49.79-29.69-24.08-29.69-24.08,2.58,25,7.72,34.83,18.93,22.67,24.31,27.58,15,17.3,19.86,33.66S140,266.51,142.11,276.8s2.8,23.37,4,24.77S150.29,303.21,154,301.57Z" fill="none" stroke="#73571e" stroke-miterlimit="10" stroke-width="1.37"/>
    </g>
    <line x1="154.03" y1="301.99" x2="151.92" y2="120.66" fill="none" stroke="#73571e" stroke-miterlimit="10" stroke-width="1.37"/>
    <line x1="144.68" y1="135.39" x2="145.96" y2="225.55" fill="none" stroke="#73571e" stroke-miterlimit="10" stroke-width="1.37"/>
    <g>
      <g clip-path="url(#clip-path-5)">
        <path d="M137.3,60.88a18.35,18.35,0,0,0-9.25.18,15.81,15.81,0,0,0-8.51.17,41.86,41.86,0,0,0-21.2,15.4A17.59,17.59,0,0,0,87.69,92.35a122.09,122.09,0,0,0,.21,15.89,30.18,30.18,0,0,0,.38,13.42c1.9,7,6.84,12.84,13.94,14.79a17.48,17.48,0,0,0,5.63.6,15,15,0,0,0,8.4-.22c8.67-2.81,14.78-11.92,12-21.12-.35-1.14-.65-2.29-.93-3.44a16.5,16.5,0,0,0,7.73-6.85c1.36-2.3,2.78-4.56,4.24-6.81l.08-.12c.25-.29.5-.59.76-.88.74-.8,1.58-1.52,2.34-2.3a22.11,22.11,0,0,0,6.42-12.24c.14-.36.28-.71.4-1.08C152.26,73.51,145.91,62.84,137.3,60.88Z" fill="#5f83c2"/>
        <path d="M128.3,85.41a1,1,0,0,0-1.5.31,16,16,0,0,1-3.59,5.2c-.73.71-1.56,1.28-2.33,2a4.19,4.19,0,0,0-1.54,2.71,1,1,0,0,0,1.3,1,15.81,15.81,0,0,0,6.38-3.9,9.63,9.63,0,0,0,2.41-6.28A1,1,0,0,0,128.3,85.41Z" fill="#395ea8"/>
        <path d="M133.19,68.68a6.67,6.67,0,0,0-1.74.67c-7,3.71-13.74,8.77-18.45,15.26l-.49.7a44.7,44.7,0,0,0-3.24,5.45,2.4,2.4,0,0,0,4.15,2.42c4.76-6.69,11.7-11.28,17.89-16.51,1.3-1.09,2.39-2.4,3.58-3.62A4.71,4.71,0,0,0,136,71.59a2.22,2.22,0,0,0-.51-2.31A2.31,2.31,0,0,0,133.19,68.68Z" fill="#ead116"/>
        <path d="M118.36,91.21a.58.58,0,0,0,0-.23.34.34,0,0,0-.59-.1,1.24,1.24,0,0,0-.23.44,11.41,11.41,0,0,1-1.48,2.4c-1.11,1.51-2.33,3-3.57,4.37a9.74,9.74,0,0,0-1.83,3,16.29,16.29,0,0,0-.63,3.68.83.83,0,0,0,.06.58c.27.4.67-.14.82-.38a30.72,30.72,0,0,1,2.9-4A26.39,26.39,0,0,1,116,98.55a7.28,7.28,0,0,0,1.86-2.44c.63-1.49.43-3.17.5-4.78Z" fill="#ead116"/>
        <path d="M116.08,90.72c-.27-1.19-2-.82-2,.25l-.13.09a18.79,18.79,0,0,0-1.55,1.54c-.94.66-2,1.17-2.87,1.87a10.17,10.17,0,0,0-2.79,4c-.76,1.82-1.22,3.9-2.08,5.72A21.76,21.76,0,0,1,101,108.3a1,1,0,0,0,.73,1.76c1.95,0,3-1.65,3.89-3.16a65.66,65.66,0,0,1,3.61-5.68,59.7,59.7,0,0,1,4.2-5.31C114.76,94.43,116.57,92.91,116.08,90.72Z" fill="#395ea8"/>
        <path d="M113,82.64a1,1,0,0,0-1.27.72.83.83,0,0,0,0,.22,1.36,1.36,0,0,0-.34.21l-.18.16a1,1,0,0,0-.72-.54,1,1,0,0,0-1.39,0c-3,3.17-6.13,6.54-7.3,10.87-.3,1.1,1.34,1.86,1.88.8a24.32,24.32,0,0,1,3.74-5.47c.43-.48.94-.94,1.44-1.42.27.63,1.2,1,1.71.4L113,85.54a3.31,3.31,0,0,0,.88-1.48A1.24,1.24,0,0,0,113,82.64Z" fill="#395ea8"/>
        <path d="M118.84,112c-.25-2.88-.92-5.84,0-8.68a1,1,0,0,0-1.57-1.08,2.8,2.8,0,0,0-.91,1.15c-2.94,5.52-3.52,11.88-6.38,17.4a15.36,15.36,0,0,1-6.28,6.7,2.75,2.75,0,0,1-2.38.32,2.68,2.68,0,0,1-1.16-1.47,4.89,4.89,0,0,0-.94-1.65c-.72-.7-1.86-.58-1.92.54a2.28,2.28,0,0,0,.28,1.1c.6,1.25,1.71,2.21,2.25,3.49a3,3,0,0,0,.56,1,2.07,2.07,0,0,0,1.16.44,12.62,12.62,0,0,0,7.3-1,17,17,0,0,0,5.26-4.62,23.42,23.42,0,0,0,3.85-6.4A16,16,0,0,0,118.84,112Z" fill="#395ea8"/>
        <path d="M139.58,73.19l-.17.22c-1.47,1.9-4,2.78-5.73,4.46A14.37,14.37,0,0,0,129.76,85c-.62,2.82.17,6.44-1.49,8.95-1.05,1.59-3.09,2.21-4.43,3.57-1,1,.23,2.79,1.24,1.68a8,8,0,0,1,1.2-1,.82.82,0,0,0,.8.37c3.17-.43,4.24-4.35,4.57-7.23a58.41,58.41,0,0,0,1.42-6.41,11.57,11.57,0,0,1,3.13-6.27,32.18,32.18,0,0,1,3.45-2.53l.33-.28.32-.27c0-.05.78.27.83.22.35-.34,1-.45,1.21-.89.44-.82-1.54-2.65-2.38-2.07A2,2,0,0,0,139.58,73.19Z" fill="#395ea8"/>
        <path d="M128.74,83.68a.34.34,0,0,0-.59,0l-.85,1.13c-.25.34-.58.71-.36,1.16a.35.35,0,0,0,.6,0l.29-.45v0a.33.33,0,0,0,.56.24.37.37,0,0,0,.33.08h0a4.31,4.31,0,0,1-.2,1.67c-.14.42.52.6.66.18A4.85,4.85,0,0,0,128.74,83.68Z" fill="#395ea8"/>
        <path d="M119.06,86.09c-2.94,2.37-6.71,3.86-8.82,7.11a5.07,5.07,0,0,0-1.35,1.73c-.17.4.42.75.6.34a3.38,3.38,0,0,1,.44-.73.29.29,0,0,0,0,.31l-.1.12a.35.35,0,0,0,0,.48.35.35,0,0,0,.49,0,18.28,18.28,0,0,1,2.8-3,30.6,30.6,0,0,0,2.61-2c-.09.33-.18.67-.28,1a5.34,5.34,0,0,1-.88,1,.31.31,0,0,0,.07.52,5.62,5.62,0,0,1-.8.74c-.35.26,0,.85.35.59l.14-.12a.35.35,0,0,0,.55.11,15.78,15.78,0,0,0,2.53-3.58,43.47,43.47,0,0,0,2.14-4.12A.34.34,0,0,0,119.06,86.09Z" fill="#395ea8"/>
        <path d="M122.14,94.61c-.1.11-.21.21-.32.32a.37.37,0,0,0-.28.09c-.47.38-1,.74-1.44,1.1l0-.05h0a2.39,2.39,0,0,1,.22-.23.34.34,0,0,0,0-.49.34.34,0,0,0-.48,0,.94.94,0,0,0-.1.1,3.93,3.93,0,0,1,.65-1.21c.29-.33-.19-.82-.48-.49a5.78,5.78,0,0,0-1,2l-.84,2.5a.34.34,0,0,0,.62.27.83.83,0,0,0,.08-.12l0-.05a6,6,0,0,1,1.76-1.64,11.1,11.1,0,0,0,2-1.58C122.93,94.77,122.44,94.28,122.14,94.61Z" fill="#395ea8"/>
        <path d="M127.47,84.54a1,1,0,0,0-1-.75.93.93,0,0,0-1.24-.19,3.52,3.52,0,0,0-.5.43,1.07,1.07,0,0,0-.64.85,7.94,7.94,0,0,0-.49,1.06,18.45,18.45,0,0,1-1.23,2.53,19.66,19.66,0,0,1-1.57,2.25,7.34,7.34,0,0,0-1.48,2.64,1,1,0,0,0,.26,1c1.21.94,2.37.1,3.37-.7a13.57,13.57,0,0,0,2.32-2.41C126.66,89.42,128,86.89,127.47,84.54Z" fill="#ead116"/>
        <path d="M111.53,85.84a9.48,9.48,0,0,0-1.44.94,22.6,22.6,0,0,0-3.29,2.73A22.29,22.29,0,0,0,102,96.57a20.68,20.68,0,0,0-1.68,7.26,21.3,21.3,0,0,0,.69,6.7,27.88,27.88,0,0,0,1,3l0,.15a.25.25,0,0,0,.09.13c.11.25.23.5.36.74a.35.35,0,0,0,.63-.27,10.71,10.71,0,0,1-.44-4.28,18.68,18.68,0,0,1,1.78-4.68c.74-1.6,1.52-3.18,2.32-4.75.38-.76.77-1.52,1.14-2.28a48.44,48.44,0,0,0,2.92-5.69,20.54,20.54,0,0,0,.92-3.69,18,18,0,0,0,.2-1.94c0-.26.13-1-.16-1.13A.41.41,0,0,0,111.53,85.84Z" fill="#f3fafd"/>
        <path d="M121,70c-.54-.21-6.22,4.18-6.86,4.77l-.7.66a21.63,21.63,0,0,0-1.75,1.7,16.75,16.75,0,0,0-2.57,3.29c-.31.54-4.39,7.77-3.88,7.9a.54.54,0,0,0,.54-.27,3.76,3.76,0,0,0,.25-.58c.58-1.25,2.83-1.85,3.91-2.64a34.21,34.21,0,0,0,5.36-4.46c2.68-2.93,3.29-6.57,5.54-9.75a.75.75,0,0,0,.2-.57A.07.07,0,0,0,121,70Z" fill="#f3fafd"/>
      </g>
      <path d="M142.27,75.58s-4.84.9-7.41,3.71-3.51,7.48-3.51,11.45-.23,8-4.44,8-8.18,1.87-8.41,4.67,1.4,11.92,0,15.43-4.44,8.42-8.65,10.52-12.15,4.21-12.39-5.14-1.87-20.11,0-28.52,7-19.4,17.06-24.54S127.15,66.2,131.59,66,143.36,66.49,142.27,75.58Z" fill="none" stroke="#73571e" stroke-miterlimit="10" stroke-width="1.37"/>
    </g>
    <g>
      <g clip-path="url(#clip-path-6)">
        <path d="M202,117.74a78.12,78.12,0,0,0-3.24-19.34c-2.05-6.44-6.17-10.8-9.38-16.51-2.57-4.58-5.27-8.86-9.09-11.94.67-.34,1.32-.7,1.94-1.08A21.38,21.38,0,0,0,191.1,58.8c2-5.07,1-10.54-.64-15.56-1.72-5.22-3.88-10.3-5.55-15.54a43.43,43.43,0,0,1-1.7-8.84c-.25-2.3-.22-5.13-1.27-7.22-1.84-3.71-6.29-3-8.15,0a3.55,3.55,0,0,0-1.08.73c-3.82,3.72-5.3,8.68-6.11,13.83a175.06,175.06,0,0,1-3.2,17.43c-1.64,6.24-4.3,11.81-6.88,17.67a47.07,47.07,0,0,0-1.85,5,35.14,35.14,0,0,0-4.48,1.5c-3.88,1.61-7,3.31-9.23,7.1a15.76,15.76,0,0,0-1.56,11.9c2.09,6.43,9.33,12.71,16.59,11.48-.26,11.63,2.23,24.12,7.85,34.13,5.29,9.42,17.64,13.49,27.08,7.7C198.75,135.31,202.4,126.72,202,117.74Z" fill="#5f83c2"/>
        <path d="M169.92,76.09a15.17,15.17,0,0,0-4.33-.78,8.67,8.67,0,0,0-1.35-.24,5.15,5.15,0,0,0-4.19,1.23.35.35,0,0,0-.44,0l-4.41,3.81a.32.32,0,0,0-.08.12,2.36,2.36,0,0,0-.48.29l-.29.13c-.37.19-.08.73.29.61a.35.35,0,0,0,.28-.09.24.24,0,0,1,.08-.06c.37-.18.74-.35,1.12-.51l2.38-.52h1.11c.75,0,1.5.08,2.25.15a17,17,0,0,1,6.26,3.14,21.37,21.37,0,0,1,5.09,6.36c1.11,2,2,4.09,2.94,6.19s1.84,4.22,2.68,6.37c.59,1.5,1.21,4.78,3.19,5.11a1.59,1.59,0,0,0,1.91-1.19C186.34,95,181.8,80.06,169.92,76.09Z" fill="#ead116"/>
        <path d="M171.58,88.53c-.65-.56-2.27-1.94-3.06-.9a1.26,1.26,0,0,0,.09,1.49l.12.12a.27.27,0,0,0,.1.28,5.77,5.77,0,0,1,2,3.21,14.73,14.73,0,0,1,.37,2.07c.06.51,0,1.13.48,1.48a.35.35,0,0,0,.54-.07C173.55,93.9,173.76,90.44,171.58,88.53Z" fill="#ead116"/>
        <path d="M182.22,109.8a18.56,18.56,0,0,0-2.45-3.7c-.84-1.24-1.17-2.77-2.17-3.9a3.26,3.26,0,0,0-2-1.1,1.65,1.65,0,0,0-1.08.29c-.53.39-.47,1.24-.32,1.79.22.87.61,1.71.87,2.57a9,9,0,0,0,5.83,6.28c.49.16,1.19.36,1.48-.23A2.83,2.83,0,0,0,182.22,109.8Z" fill="#ead116"/>
        <path d="M189.92,112.91a16.23,16.23,0,0,0-1.25-5.63,29.82,29.82,0,0,0-3.47-5.48l0,0a.93.93,0,0,1,0-.13c-.14-.42-.8-.24-.66.18,2.41,7.47-1,15.32.73,22.88a13.78,13.78,0,0,0,2.36,5.23.34.34,0,0,0,.59,0c2-3.11,1.88-7.06,1.9-10.63C190,117.16,190.05,115,189.92,112.91Z" fill="#f1f9fe"/>
        <path d="M185.31,85.53a16.7,16.7,0,0,0-4.37-6.45.32.32,0,0,0-.34-.07,1.37,1.37,0,0,0-.83-.11.35.35,0,0,0-.24.42c.38,2,.8,3.93,1.24,5.89.25,1.37.58,2.73,1,4.08.27,1.12.55,2.25.85,3.37.19.73.39,1.46.59,2.19a4,4,0,0,0,.64,1.6c.76.87,1.72.12,2.06-.71a10.82,10.82,0,0,0,.55-3.34A17.14,17.14,0,0,0,185.31,85.53Z" fill="#f1f9fe"/>
        <path d="M166.88,83.22h0c-.21-.18-.43-.35-.66-.52l-.13-.16a.36.36,0,0,0-.49,0,.35.35,0,0,0,0,.43.08.08,0,0,0,0,0l.38.73a.36.36,0,0,0,0,.22,5.65,5.65,0,0,1,.38,2.64,6,6,0,0,0,.41,2.48,9.25,9.25,0,0,0,1.41,2.09c.69.84,1.37,1.68,2.06,2.51a.35.35,0,0,0,.59-.24C170.79,89.77,170.55,85.19,166.88,83.22Z" fill="#3f65ae"/>
        <path d="M182.9,76.78a13.37,13.37,0,0,0-2.44-2.71,15.91,15.91,0,0,0-1.53-1.13.25.25,0,0,0-.11-.17,7.75,7.75,0,0,0-4.15-1.65c-.24-.06-.48-.1-.72-.14l-.19,0a1.87,1.87,0,0,0-1.8.13c-.46.15-1.16.44-.85,1s1.15.63,1.67.78l1.37.4a14.12,14.12,0,0,1,5.47,4.55,15.7,15.7,0,0,1,.93,1.51,10.84,10.84,0,0,0,.78,1.47,1.18,1.18,0,0,0,1.16.55,1.75,1.75,0,0,0,1.09-1.14A3.84,3.84,0,0,0,182.9,76.78Z" fill="#3f65ae"/>
        <path d="M185.09,110.05a4.87,4.87,0,0,0-1.51-2,3.87,3.87,0,0,0-1.18-.64c-.33-.12-.87-.3-1.19-.07s-.26.7-.15,1a2.77,2.77,0,0,0,.9,1.18c.2.17.42.32.63.47a4.93,4.93,0,0,1,.7,2.6c.06,1.2-.06,2.4.07,3.6,0,.36,0,1,.34,1.24a.66.66,0,0,0,1-.26,4.87,4.87,0,0,0,.46-1.07A7.4,7.4,0,0,0,185.09,110.05Z" fill="#3f65ae"/>
        <path d="M186.11,125a35.36,35.36,0,0,0-4.07-7.34,34.61,34.61,0,0,1-2.39-4.13,16,16,0,0,0-1.73-3.31,6.38,6.38,0,0,0-1.44-1.59.36.36,0,0,0-.58.17c-.07.27.15.48.23.73a3,3,0,0,1,.07.89c-.09,2-.36,4,.75,5.87.59,1,1.47,1.74,2.08,2.71a12.4,12.4,0,0,1,1.18,3.62,8.85,8.85,0,0,0,1.89,3.86,4.94,4.94,0,0,0,3.32,1.7C187.09,128.23,186.42,125.88,186.11,125Z" fill="#3f65ae"/>
        <path d="M195.06,132.25c-.57.12-1.12.22-1.67.31.25-.17.49-.32.73-.5a2.17,2.17,0,0,0,.71-2.62l.09-.14a1.78,1.78,0,0,0-.3-2.41,76,76,0,0,0,1.86-10.49c1.49-12.85-2.83-24.64-7.64-36.33-1-2.42-5-1.36-4,1.1,3.65,8.86,7.45,18,7.82,27.74a49.08,49.08,0,0,1-.91,11.08,43.25,43.25,0,0,1-1.11,5.64,7.4,7.4,0,0,1-2.45,3.6,6.23,6.23,0,0,1-3.47,1.17,7.35,7.35,0,0,1-4.11-1.1,11.64,11.64,0,0,0-2.26-1.37,1.93,1.93,0,0,0-2.34.66,2,2,0,0,0-3.38,2.09,3.71,3.71,0,0,0,1.49,1.7,19.78,19.78,0,0,0,6.36,2.75c-.52,1.24-.37,2.75,1.1,3.25a7.74,7.74,0,0,0,5.76,0c.24.12.47.24.72.35A2.25,2.25,0,0,0,191.2,137a40.39,40.39,0,0,0,5-.74C198.75,135.69,197.65,131.72,195.06,132.25Z" fill="#3f65ae"/>
      </g>
      <path d="M151.92,90.27a29.41,29.41,0,0,0,5.85-4c2.57-2.34,6.54,1.4,8.88,7s5.37,7.48,5.14,15.66-.47,12.86,3,16.13,8.41,8.18,11.22,10.29,8.18,1.87,8.41-10.52,1.64-26.65-2.33-34.36-7.72-15.43-13.79-18.23-11.92-3-17.3,2.1S151.92,83,151.92,83Z" fill="none" stroke="#73571e" stroke-miterlimit="10" stroke-width="1.37"/>
    </g>
    <g>
      <g clip-path="url(#clip-path-7)">
        <path d="M145.44,88.76c-1.68-5.08-.44-9.27,1.43-14.11,2.06-5.37-6.56-7.69-8.61-2.38-2,5.15-3.22,10-2.23,15.5.92,5.16,4.69,9.45,4.21,14.78-.52,5.72,8.41,5.69,8.93,0C149.66,97.14,147.06,93.64,145.44,88.76Z" fill="#bfd23e"/>
        <path d="M147.81,74.3c-2.71-5.07-10.42-.57-7.71,4.51s9.79,14.23,5.06,20.13c-3.56,4.44,2.72,10.8,6.31,6.31C159.78,94.87,153.12,84.26,147.81,74.3Z" fill="#a1b83d"/>
        <path d="M155,92.75c-.45-1.84-.88-3.69-1.33-5.53-.05-1-.15-1.91-.25-2.85a1.9,1.9,0,0,0-.95-1.52,1.58,1.58,0,0,0,.14-1.87q-3-4.08-5.92-8.26a1.87,1.87,0,0,0-1.82-.82l0-.07a1.73,1.73,0,0,0-2.35-.61,1.75,1.75,0,0,0-.61,2.35,25.8,25.8,0,0,0,2.84,4.73c.59.77,1.21,1.52,1.87,2.23a12.59,12.59,0,0,1,2.13,2.64A14.62,14.62,0,0,1,150,86.38a7.5,7.5,0,0,1,.34,2.1,6.21,6.21,0,0,1-.81,2.81A28,28,0,0,1,145.89,96a11.59,11.59,0,0,0-2.79,5.14,2.68,2.68,0,0,0,.59,2.52,1.7,1.7,0,0,0,2.46-.41,5.6,5.6,0,0,0,.41-1.75,6.94,6.94,0,0,1,1.87-3.22,41.57,41.57,0,0,0,3.2-3.93l.2-.31C152.62,95.69,155.5,94.77,155,92.75Z" fill="#73842a"/>
        <path d="M147.94,90.87a9.33,9.33,0,0,0-1.27-3.62,17.47,17.47,0,0,0-2.83-3.18.36.36,0,0,0-.58.16,7.85,7.85,0,0,0-.26,1,.05.05,0,0,0,0,0,11.42,11.42,0,0,0-.72,3.61,2.36,2.36,0,0,0,.39,1.41c.32.43.93.6,1.16,1.1A4.61,4.61,0,0,1,144,93c0,.56.06,1.12.13,1.68A8.84,8.84,0,0,0,145.21,98a.35.35,0,0,0,.54.07A9.33,9.33,0,0,0,147.94,90.87Z" fill="#e3c835"/>
      </g>
      <path d="M143.27,71.11a67.14,67.14,0,0,0-2.1,13.55c-.23,6.78.46,13.8,4.79,16.83,2.69-2.33,5.73-5.84,6-11.22s.47-8.64-1.63-11.92S143.27,71.11,143.27,71.11Z" fill="none" stroke="#73571e" stroke-miterlimit="10" stroke-width="1.37"/>
    </g>
    <g>
      <g clip-path="url(#clip-path-8)">
        <path d="M156.72,83.15C151,81.58,146.5,85.1,144.48,90.1c-3.19,7.86-4.87,16.19-7.78,24.14-3.09,8.45-7.75,16.73-4.95,26.54a10,10,0,1,0,19.2-5.3c-.49-1.71.06-4.09.91-6.28,1.56-4,3.48-7.89,4.86-12,2.42-7.24,4.08-14.71,7-21.81C165.7,90.41,161.48,84.45,156.72,83.15Z" fill="#bfd23e"/>
        <path d="M156.88,93.79A7.57,7.57,0,0,1,157,91.9a4.76,4.76,0,0,0,0-2.19,1.75,1.75,0,0,0-1.61-1.28,2.62,2.62,0,0,0-1.73,1.24c-3.94,5-7.89,10.13-10.08,16.11A35.57,35.57,0,0,0,142,122.87a1.26,1.26,0,0,0,.48.8c0,.69,0,1.38,0,2.06.1,3.64.46,7.32,2.19,10.59a1.73,1.73,0,0,0,3.2-.87l-.57-10.7a84.13,84.13,0,0,1-.13-9.66c.18-2.86.67-5.93,2.41-8.3,1.1-1.51,2.61-2.7,3.6-4.3.82-1.33,1.71-2.62,2.49-4,.55-1,1.56-2.34,1.47-3.47,0-.33-.15-.63-.21-1C156.91,94,156.89,93.89,156.88,93.79Z" fill="#a1b83d"/>
        <path d="M153.83,95.84c-.08.12-.16.26-.24.39-.76,1.11-1.59,2.19-2.38,3.29-2,2.75-4.46,5.47-5.83,8.59-1.08,2.46-.91,5.17-.67,7.78a.69.69,0,0,0,1.38,0,24.32,24.32,0,0,1,2.27-7.69c1.24-2.55,3-4.56,4.67-6.84a11.58,11.58,0,0,0,2.05-5,.81.81,0,0,0-.56-.86A.63.63,0,0,0,153.83,95.84Z" fill="#73842a"/>
        <path d="M147,137l-.17-1c-.09-1.12.12-2.31.07-3.45a30.19,30.19,0,0,0-.33-3.56c-.35-2.17-.77-4.31-1.26-6.45-1.26-5.46-3.6-14.9-.25-19.65.55-.79-2.23,1.4-2.48,2.24a20.75,20.75,0,0,0-.72,8.93c.13,1,.34,1.91.53,2.86.19,3.23.39,6.47.61,9.7a25.41,25.41,0,0,0,1,10.93.78.78,0,0,0,1.23.27.66.66,0,0,0,.22.52c0,.16,0,.32,0,.49.08.87,1.45.88,1.38,0l-.06-.61A1.45,1.45,0,0,0,147,137Z" fill="#73842a"/>
        <path d="M155.34,86.82s0,0-.05,0a77.61,77.61,0,0,0-5.51,7.62l-.5.62a20.22,20.22,0,0,0-3.18,4c-.4.65.58,1.45,1.07.83l3.26-4.06c.82-.76,1.68-1.45,2.53-2.18,1.95-1.68,3.78-3.84,3.7-6.56A.7.7,0,0,0,155.34,86.82Z" fill="#73842a"/>
        <path d="M156,100.54q-.06-.32-.15-.63c-.09-.38-.27-1-.69-1.21-1-.38-1,1.28-1,1.82-.17,1.16-.39,2.3-.66,3.44a37.59,37.59,0,0,1-3,8.14,39.91,39.91,0,0,1-2.31,3.87,7.25,7.25,0,0,0-1.41,2.41.62.62,0,0,0,0,.38c.14.32.61.23.94.1a15.53,15.53,0,0,0,5.44-3.24,12.31,12.31,0,0,0,2.91-6.79A24,24,0,0,0,156,100.54Z" fill="#e3c835"/>
      </g>
      <path d="M153,89.7a139.29,139.29,0,0,1-8.29,12.73c-3.51,4.44-2.74,10.28-2.3,18.23.39,7.19-.78,11.56,2.41,16.26a1.2,1.2,0,0,0,2.13-.31c1.49-4.51,2.3-15.16,7.11-17.12,5-2,3.06-25.71,2.48-31.78a.68.68,0,0,0-1.15-.41Z" fill="none" stroke="#73571e" stroke-miterlimit="10" stroke-width="1.37"/>
    </g>
  </g>
</svg>
